<svg width="32" height="32" viewBox="0 0 32 32" fill="none" xmlns="http://www.w3.org/2000/svg">
  <!-- Dark Blue Chevron/A Symbol in Center -->
  <path d="M16 6 L22 18 L10 18 Z" fill="#1e3a8a" stroke="#1e3a8a" stroke-width="0.3"/>
  <path d="M16 10 L19 16 L13 16 Z" fill="#3b82f6"/>
  
  <!-- Colorful Dots Ring Around Chevron -->
  <!-- Large Dots (12 total) forming outer perimeter - clockwise from top-left -->
  <circle cx="5" cy="6" r="2" fill="#8b5cf6"/> <!-- Purple -->
  <circle cx="9" cy="4" r="2" fill="#10b981"/> <!-- Green -->
  <circle cx="13" cy="3" r="2" fill="#f97316"/> <!-- Orange -->
  <circle cx="17" cy="4" r="2" fill="#1e3a8a"/> <!-- Dark Blue -->
  <circle cx="21" cy="6" r="2" fill="#f97316"/> <!-- Orange -->
  <circle cx="24" cy="10" r="2" fill="#1e3a8a"/> <!-- Dark Blue -->
  <circle cx="25" cy="14" r="2" fill="#1e3a8a"/> <!-- Dark Blue -->
  <circle cx="24" cy="18" r="2" fill="#f97316"/> <!-- Orange -->
  <circle cx="21" cy="22" r="2" fill="#10b981"/> <!-- Green -->
  <circle cx="17" cy="24" r="2" fill="#8b5cf6"/> <!-- Purple -->
  <circle cx="13" cy="25" r="2" fill="#10b981"/> <!-- Green -->
  <circle cx="9" cy="24" r="2" fill="#8b5cf6"/> <!-- Purple -->
  
  <!-- Small Dots (8 total) positioned closer to center -->
  <circle cx="7" cy="5" r="1.2" fill="#8b5cf6"/> <!-- Purple - top-left -->
  <circle cx="11" cy="3.5" r="1.2" fill="#8b5cf6"/> <!-- Purple - top-center -->
  <circle cx="15" cy="3" r="1.2" fill="#1e3a8a"/> <!-- Dark Blue - top-right -->
  <circle cx="19" cy="3.5" r="1.2" fill="#1e3a8a"/> <!-- Dark Blue - mid-right -->
  <circle cx="22.5" cy="8" r="1.2" fill="#1e3a8a"/> <!-- Dark Blue - bottom-right -->
  <circle cx="23" cy="12" r="1.2" fill="#1e3a8a"/> <!-- Dark Blue - bottom-center -->
  <circle cx="22.5" cy="16" r="1.2" fill="#8b5cf6"/> <!-- Purple - bottom-left -->
  <circle cx="19" cy="20" r="1.2" fill="#8b5cf6"/> <!-- Purple - mid-left -->
  
  <!-- Annita text (keeping original white color) -->
  <text x="16" y="28" font-family="Arial, sans-serif" font-size="3" font-weight="bold" fill="white" text-anchor="middle">ANNITA</text>
</svg>
